HIERARCHY
ROOT Hips
{
	OFFSET 0.000000  0.463670  0.080341
	CHANNELS 6 Xposition Yposition Zposition Zrotation Yrotation Xrotation 
	JOINT LHipJoint
	{
		OFFSET 0 0 0
		CHANNELS 3 Zrotation Yrotation Xrotation
		JOINT LeftUpLeg
		{
			OFFSET 0.949434 -0.248378 0.086503
			CHANNELS 3 Zrotation Yrotation Xrotation
			JOINT LeftLeg
			{
				OFFSET -0.076513 -3.879421 -0.177038
				CHANNELS 3 Zrotation Yrotation Xrotation
				JOINT LeftFoot
				{
					OFFSET -0.188964 -3.680973 -0.122632
					CHANNELS 3 Zrotation Yrotation Xrotation
					JOINT LeftToeBase
					{
						OFFSET 0.055451 -0.524480 1.120382
						CHANNELS 3 Zrotation Yrotation Xrotation
						End Site
						{
							OFFSET 0.007944 -0.006006 0.139660
						}
					}
				}
			}
		}
	}
	JOINT RHipJoint
	{
		OFFSET 0 0 0
		CHANNELS 3 Zrotation Yrotation Xrotation
		JOINT RightUpLeg
		{
			OFFSET -0.949434 -0.248378 0.086503
			CHANNELS 3 Zrotation Yrotation Xrotation
			JOINT RightLeg
			{
				OFFSET 0.076513 -3.879421 -0.177038
				CHANNELS 3 Zrotation Yrotation Xrotation
				JOINT RightFoot
				{
					OFFSET 0.188964 -3.680973 -0.122632
					CHANNELS 3 Zrotation Yrotation Xrotation
					JOINT RightToeBase
					{
						OFFSET -0.055451 -0.524480 1.120382
						CHANNELS 3 Zrotation Yrotation Xrotation
						End Site
						{
							OFFSET -0.007944 -0.006006 0.139660
						}
					}
				}
			}
		}
	}
	JOINT LowerBack
	{
		OFFSET 0 0 0
		CHANNELS 3 Zrotation Yrotation Xrotation
		JOINT Spine
		{
			OFFSET 0.000000 0.677144 0.028277
			CHANNELS 3 Zrotation Yrotation Xrotation
			JOINT Spine1
			{
				OFFSET 0.000000 2.156116 -0.508617
				CHANNELS 3 Zrotation Yrotation Xrotation
				JOINT Neck
				{
					OFFSET 0 0 0
					CHANNELS 3 Zrotation Yrotation Xrotation
					JOINT Neck1
					{
						OFFSET 0.000000 1.781871 0.216275
						CHANNELS 3 Zrotation Yrotation Xrotation
						JOINT Head
						{
							OFFSET 0.000000 1.015906 -0.026879
							CHANNELS 3 Zrotation Yrotation Xrotation
							End Site
							{
								OFFSET 0.000000 0.339197 0.983632
							}
						}
					}
				}
				JOINT LeftShoulder
				{
					OFFSET 0 0 0
					CHANNELS 3 Zrotation Yrotation Xrotation
					JOINT LeftArm
					{
						OFFSET 1.565866 1.184736 0.289545
						CHANNELS 3 Zrotation Yrotation Xrotation
						JOINT LeftForeArm
						{
							OFFSET 1.930940 -0.176441 -0.109244
							CHANNELS 3 Zrotation Yrotation Xrotation
							JOINT LeftHand
							{
								OFFSET 2.263412 -0.058986 0.122483
								CHANNELS 3 Zrotation Yrotation Xrotation
								JOINT LeftFingerBase
								{
									OFFSET 0 0 0
									CHANNELS 3 Zrotation Yrotation Xrotation
									JOINT LeftHandIndex1
									{
										OFFSET 0.944218 0.017559 0.358417
										CHANNELS 3 Zrotation Yrotation Xrotation
										End Site
										{
											OFFSET 0.237801 -0.022714 0.035813
										}
									}
								}
								JOINT LThumb
								{
									OFFSET 0 0 0
									CHANNELS 3 Zrotation Yrotation Xrotation
									End Site
									{
										OFFSET 0.234930 -0.092931 0.244282
									}
								}
							}
						}
					}
				}
				JOINT RightShoulder
				{
					OFFSET 0 0 0
					CHANNELS 3 Zrotation Yrotation Xrotation
					JOINT RightArm
					{
						OFFSET -1.565866 1.184736 0.289545
						CHANNELS 3 Zrotation Yrotation Xrotation
						JOINT RightForeArm
						{
							OFFSET -1.930940 -0.176441 -0.109244
							CHANNELS 3 Zrotation Yrotation Xrotation
							JOINT RightHand
							{
								OFFSET -2.263412 -0.058986 0.122483
								CHANNELS 3 Zrotation Yrotation Xrotation
								JOINT RightFingerBase
								{
									OFFSET 0 0 0
									CHANNELS 3 Zrotation Yrotation Xrotation
									JOINT RightHandIndex1
									{
										OFFSET -0.944218 0.017559 0.358417
										CHANNELS 3 Zrotation Yrotation Xrotation
										End Site
										{
											OFFSET -0.237801 -0.022714 0.035813
										}
									}
								}
								JOINT RThumb
								{
									OFFSET 0 0 0
									CHANNELS 3 Zrotation Yrotation Xrotation
									End Site
									{
										OFFSET -0.234930 -0.092931 0.244282
									}
								}
							}
						}
					}
				}
			}
		}
	}
}
MOTION
Frames: 9
Frame Time: .0083333
11.751706 10.289524 25.604141 173.962997 -28.867399 -158.723007 0.000000 0.000000 0.000000 -1.666700 -4.548600 -1.283800 3.283700 11.140800 32.756100 -0.082000 -6.798400 -2.342500 3.483100 -11.438900 -33.774700 0.000000 0.000000 0.000000 -11.966100 7.751200 -70.785301 -8.603600 -16.545799 54.708900 -0.290600 3.349200 -9.580700 -1.533400 7.817800 -22.162001 -4.988300 -2.674100 18.256300 1.487700 -4.711800 2.881400 5.539000 -2.305100 -6.565200 -2.165500 2.097700 -2.918400 -1.029800 3.599100 -6.778500 0.431600 1.481300 -3.541500 -0.000000 0.000000 0.000000 -67.980301 1.476100 38.423199 100.661301 -59.566101 -69.219498 -0.000000 0.000000 -2.455200 22.150499 -3.938900 -1.601800 -7.125000 0.000000 -0.000000 -3.387000 25.726500 1.583700 -0.000000 0.000000 0.000000 64.986298 -36.768398 30.293900 -43.534000 50.029800 -21.109200 0.000000 -0.000000 -4.475600 -27.082100 -4.596600 2.346500 7.125000 -0.000000 -0.000000 -0.353200 -35.139301 -0.085500
11.651278 10.337576 25.387637 173.910004 -28.528000 -158.889008 0.000000 0.000000 0.000000 -1.680000 -4.512000 -0.917100 3.356600 11.251000 33.131199 -0.076100 -5.181900 3.730200 3.044700 -10.767000 -31.497999 0.000000 0.000000 0.000000 -11.787700 7.911900 -70.060501 -7.795700 -15.966900 51.823502 -0.177100 2.350200 -7.481300 -1.506400 7.751900 -21.963100 -4.877800 -2.688200 18.279800 1.430400 -4.731800 3.076400 5.411100 -2.338700 -6.379100 -2.599200 2.219900 -3.156500 -0.808200 3.857200 -6.268300 0.612300 1.588200 -3.346900 0.000000 0.000000 0.000000 -68.203697 1.818000 38.689499 101.576401 -59.487499 -70.008202 -0.000000 0.000000 -2.179900 22.545900 -3.945700 -1.636300 -7.125000 0.000000 -0.000000 -3.088000 25.707500 1.444800 0.000000 0.000000 0.000000 65.310402 -37.053699 30.266600 -43.627499 50.078098 -21.180901 0.000000 -0.000000 -3.636000 -33.480801 4.031800 -2.662500 7.125000 -0.000000 -0.000000 -5.141700 -25.148001 -2.478800
11.549573 10.376370 25.171923 173.787003 -28.228901 -159.072006 0.000000 0.000000 0.000000 -1.780500 -4.839300 -1.056800 3.642800 11.669300 34.571800 0.103700 -3.901400 8.768300 2.571800 -9.967300 -28.870899 0.000000 0.000000 0.000000 -11.590300 7.916400 -69.487801 -7.292000 -15.572900 49.970200 -0.111700 1.389500 -5.978800 -1.440300 7.587300 -21.467501 -4.846500 -2.691200 18.344400 1.417500 -4.755600 3.299300 5.378400 -2.375200 -6.174600 -2.838500 2.264800 -3.078699 -0.908600 3.999000 -6.040000 0.635400 1.623700 -3.287500 0.000000 -0.000000 0.000000 -68.633904 2.504800 38.852402 102.734200 -59.378300 -71.005096 -0.000000 0.000000 -1.901000 22.780399 -3.935700 -1.651100 -7.125000 0.000000 -0.000000 -2.910800 25.711100 1.361500 0.000000 -0.000000 0.000000 65.463699 -37.103001 30.382601 -43.611900 50.070000 -21.168900 0.000000 -0.000000 -2.970700 -33.120899 7.069000 -4.590300 7.125000 -0.000000 -0.000000 -4.601800 -21.568300 -2.596100
11.448904 10.406699 24.954507 173.639008 -28.003500 -159.285995 0.000000 0.000000 0.000000 -1.888399 -5.336900 -1.250900 3.984700 12.140000 36.229099 0.367300 -3.399800 13.210100 1.935000 -8.729400 -24.952600 0.000000 0.000000 0.000000 -11.174800 7.724000 -68.766502 -6.859900 -15.212800 48.342400 -0.066400 0.213200 -4.792600 -1.429100 7.559200 -21.382900 -4.774500 -2.728900 18.515400 1.386700 -4.822200 3.477700 5.323800 -2.426900 -6.074900 -3.102200 2.297000 -2.879200 -0.990500 4.119300 -5.805800 0.664200 1.648700 -3.247500 -0.000000 0.000000 0.000000 -69.120796 3.747600 38.894600 104.372704 -59.204899 -72.413902 -0.000000 0.000000 -1.688700 22.466999 -4.201400 -1.735300 -7.125000 0.000000 -0.000000 -3.146100 25.433800 1.492200 -0.000000 0.000000 0.000000 65.607803 -37.158600 30.587299 -43.652302 50.090900 -21.199900 0.000000 -0.000000 -2.228200 -34.340698 4.138400 -2.822600 7.125000 -0.000000 -0.000000 -5.773600 -24.970900 -2.810100
11.348599 10.418331 24.740681 173.569000 -27.926600 -159.647995 0.000000 0.000000 0.000000 -1.905300 -5.863200 -1.934500 4.492500 12.788400 38.581402 0.582400 -3.559700 16.150900 1.065400 -6.562000 -18.424000 0.000000 0.000000 0.000000 -10.363400 7.246300 -67.615799 -6.647200 -15.027400 47.526901 -0.019900 -1.690700 -3.830300 -1.352500 7.362100 -20.792801 -4.585300 -2.662700 18.813601 1.434800 -4.737600 3.711600 5.263300 -2.410100 -6.004000 -3.400800 2.203300 -2.561300 -1.084900 4.069200 -5.708300 0.671100 1.592800 -3.271800 -0.000000 0.000000 0.000000 -69.871696 4.466000 39.057301 104.186798 -59.225700 -72.254204 -0.000000 0.000000 -1.434100 22.171700 -4.035000 -1.642500 -7.125000 0.000000 -0.000000 -3.370100 25.622400 1.583900 -0.000000 0.000000 0.000000 65.770897 -36.789398 30.716200 -43.615898 50.072102 -21.171900 0.000000 -0.000000 -2.312400 -30.834000 0.197500 -0.117900 7.125000 -0.000000 -0.000000 -3.356500 -29.741600 -1.251100
11.248173 10.433009 24.527588 173.524002 -27.766899 -159.979004 0.000000 0.000000 0.000000 -1.896400 -6.312300 -2.684200 5.099400 13.494900 41.250500 0.815900 -3.470800 18.662100 0.650500 -5.159200 -14.363100 0.000000 0.000000 0.000000 -9.789600 6.948700 -66.923897 -6.516000 -14.910400 47.019299 0.020300 -3.069500 -2.977200 -1.269100 7.140500 -20.132099 -4.417100 -2.625500 19.065300 1.464100 -4.693500 3.931600 5.199500 -2.412400 -5.917400 -3.683500 2.177400 -2.312099 -1.169200 4.107400 -5.545000 0.690800 1.578100 -3.263500 0.000000 0.000000 0.000000 -70.528198 5.341400 39.158199 104.703300 -59.167198 -72.697800 -0.000000 0.000000 -1.092000 22.153099 -4.001200 -1.627300 -7.125000 0.000000 -0.000000 -3.384400 25.659300 1.587700 0.000000 0.000000 0.000000 65.949501 -36.543400 30.806999 -43.624901 50.076698 -21.178801 0.000000 -0.000000 -2.062100 -30.491501 -0.369000 0.217300 7.125000 -0.000000 -0.000000 -3.107600 -30.400200 -1.109200
11.148051 10.439830 24.316321 173.531006 -27.630699 -160.367004 0.000000 0.000000 0.000000 -1.826700 -6.749000 -3.641900 5.831300 14.262800 44.300900 0.940500 -3.739000 20.034800 0.382600 -3.972300 -10.998900 0.000000 0.000000 0.000000 -9.131600 6.597500 -66.233398 -6.509600 -14.904700 46.994301 0.062000 -4.448300 -2.234000 -1.117200 6.714500 -18.872299 -4.209200 -2.568100 19.374300 1.518900 -4.618100 4.155500 5.138100 -2.399700 -5.860800 -3.951000 2.130100 -1.999500 -1.272900 4.108800 -5.414900 0.696200 1.545300 -3.276000 0.000000 -0.000000 0.000000 -71.273300 6.276400 39.207500 105.050301 -59.126598 -72.995697 -0.000000 0.000000 -0.702200 22.175600 -3.968800 -1.615900 -7.125000 0.000000 -0.000000 -3.367700 25.693600 1.577200 0.000000 -0.000000 0.000000 66.123703 -36.155499 30.877501 -43.625801 50.077202 -21.179600 0.000000 -0.000000 -1.929500 -29.873100 -1.189500 0.683200 7.125000 -0.000000 -0.000000 -2.639100 -31.344999 -0.881900
11.048355 10.438673 24.107065 173.606995 -27.499599 -160.822998 0.000000 0.000000 0.000000 -1.676701 -7.098200 -4.710800 6.630000 15.012200 47.460602 0.953600 -4.200900 20.421600 0.231800 -3.099000 -8.554400 0.000000 0.000000 0.000000 -8.348600 6.200400 -65.444801 -6.555600 -14.945900 47.172699 0.096900 -5.527100 -1.585900 -0.959300 6.236800 -17.472900 -3.958600 -2.487300 19.746000 1.598500 -4.507100 4.385200 5.075500 -2.370400 -5.835000 -4.198500 2.073600 -1.646799 -1.389000 4.088600 -5.304300 0.691000 1.502600 -3.300800 0.000000 -0.000000 0.000000 -72.093597 7.243300 39.190399 105.217400 -59.106701 -73.139198 -0.000000 0.000000 -0.278000 22.266300 -3.932400 -1.608400 -7.125000 0.000000 -0.000000 -3.299500 25.730101 1.542300 0.000000 -0.000000 0.000000 66.304199 -35.617100 30.913300 -43.619400 50.073898 -21.174601 0.000000 -0.000000 -1.887700 -29.386499 -1.855000 1.044400 7.125000 -0.000000 -0.000000 -2.260800 -32.103199 -0.714100
10.949392 10.429841 23.900365 173.759995 -27.359699 -161.335999 0.000000 0.000000 0.000000 -1.433701 -7.375500 -5.976200 7.532300 15.764300 50.860100 0.858700 -4.772400 19.864700 0.158400 -2.564200 -7.067800 0.000000 0.000000 0.000000 -7.490000 5.796400 -64.639702 -6.695800 -15.070300 47.714298 0.120100 -6.236400 -1.071500 -0.751800 5.538200 -15.450100 -3.670900 -2.384000 20.172800 1.704100 -4.361500 4.618300 5.015100 -2.325100 -5.837300 -4.419200 2.014100 -1.264400 -1.518400 4.054100 -5.213000 0.675100 1.453800 -3.336300 0.000000 0.000000 0.000000 -72.984100 8.221100 39.089802 105.201897 -59.108501 -73.125801 -0.000000 -0.000000 0.151600 22.414301 -3.896000 -1.605300 -7.125000 0.000000 -0.000000 -3.187800 25.764999 1.487400 0.000000 0.000000 0.000000 66.487503 -34.910301 30.912701 -43.585800 50.056599 -21.148899 0.000000 -0.000000 -1.926300 -28.994101 -2.170600 1.202400 7.125000 -0.000000 -0.000000 -1.947400 -32.456902 -0.598400
